HIERARCHY
ROOT Hips
{
	OFFSET 0.00 0.00 0.00
	CHANNELS 6 Xposition Yposition Zposition Xrotation Yrotation Zrotation
	JOINT RightUpLeg
	{
		OFFSET -3.76699 0.00000 0.00000
		CHANNELS 3 Xrotation Yrotation Zrotation
		JOINT RightLeg
		{
			OFFSET 0.00000 -18.01768 0.00000
			CHANNELS 3 Xrotation Yrotation Zrotation
			JOINT RightFoot
			{
				OFFSET 0.00000 -16.88108 0.00000
				CHANNELS 3 Xrotation Yrotation Zrotation
				JOINT RightToeBase
				{
					OFFSET 0.00000 -1.49359 5.57418
					CHANNELS 3 Xrotation Yrotation Zrotation
					End Site
					{
						OFFSET 0.00000 0.00000 2.95275
					}
				}
			}
		}
	}
	JOINT LeftUpLeg
	{
		OFFSET 3.76699 0.00000 0.00000
		CHANNELS 3 Xrotation Yrotation Zrotation
		JOINT LeftLeg
		{
			OFFSET 0.00000 -18.01768 0.00000
			CHANNELS 3 Xrotation Yrotation Zrotation
			JOINT LeftFoot
			{
				OFFSET 0.00000 -16.88108 0.00000
				CHANNELS 3 Xrotation Yrotation Zrotation
				JOINT LeftToeBase
				{
					OFFSET 0.00000 -1.49359 5.57418
					CHANNELS 3 Xrotation Yrotation Zrotation
					End Site
					{
						OFFSET 0.00000 0.00000 2.95275
					}
				}
			}
		}
	}
	JOINT Spine
	{
		OFFSET 0.00000 7.77970 0.00000
		CHANNELS 3 Xrotation Yrotation Zrotation
		JOINT RightShoulder
		{
			OFFSET 0.00000 10.94176 0.00000
			CHANNELS 3 Xrotation Yrotation Zrotation
			JOINT RightArm
			{
				OFFSET -7.70894 0.00000 0.00000
				CHANNELS 3 Xrotation Yrotation Zrotation
				JOINT RightForeArm
				{
					OFFSET -11.52135 0.00000 0.00000
					CHANNELS 3 Yrotation Zrotation Xrotation
					JOINT RightHand
					{
						OFFSET -10.17590 0.00000 0.00000
						CHANNELS 3 Xrotation Yrotation Zrotation
						End Site
						{
							OFFSET -3.93700 0.00000 0.00000
						}
						JOINT RightHandThumb1
						{
							OFFSET 0.00000 0.00000 0.00000
							CHANNELS 3 Xrotation Zrotation Yrotation
							End Site
							{
								OFFSET 0.00000 0.00000 3.93700
							}
						}
					}
				}
			}
		}
		JOINT LeftShoulder
		{
			OFFSET 0.00000 10.94176 0.00000
			CHANNELS 3 Xrotation Yrotation Zrotation
			JOINT LeftArm
			{
				OFFSET 7.70894 0.00000 0.00000
				CHANNELS 3 Xrotation Yrotation Zrotation
				JOINT LeftForeArm
				{
					OFFSET 11.52135 0.00000 0.00000
					CHANNELS 3 Yrotation Zrotation Xrotation
					JOINT LeftHand
					{
						OFFSET 10.17590 0.00000 0.00000
						CHANNELS 3 Xrotation Yrotation Zrotation
						End Site
						{
							OFFSET 3.93700 0.00000 0.00000
						}
						JOINT LeftHandThumb1
						{
							OFFSET 0.00000 0.00000 0.00000
							CHANNELS 3 Xrotation Zrotation Yrotation
							End Site
							{
								OFFSET 0.00000 0.00000 3.93700
							}
						}
					}
				}
			}
		}
		JOINT Head
		{
			OFFSET 0.00000 16.64604 0.00000
			CHANNELS 3 Xrotation Yrotation Zrotation
			End Site
			{
				OFFSET 0.00000 4.52755 0.00000
			}
		}
	}
}
MOTION
Frames:	11
Frame Time: 0.008333
-3.2986 37.1310 1.4174 -0.8970 4.0969 -2.1891 4.5397 -1.2507 -0.0552 -0.3702 0.0000 -0.0000 -5.7747 -19.0818 10.2696 9.8432 -0.0000 -0.0000 6.4335 5.1665 3.7101 -4.2110 0.0000 -0.0000 -8.1285 21.6878 -8.1615 14.2691 -0.0000 -0.0000 3.5283 3.3728 1.0272 27.1813 -29.7015 -13.8056 -66.7785 -4.6272 33.3566 5.5731 -0.0000 42.9120 3.3099 -15.0199 12.5801 33.1476 -0.0000 -26.2537 10.8864 8.0184 25.0559 -27.0399 3.5110 -28.1962 -17.7852 0.0000 -3.2994 0.0963 1.4034 -3.9263 32.8623 0.0000 24.3270 -4.4905 -12.9352 -4.6721
-3.2969 37.1311 1.4159 -0.8971 4.1024 -2.1863 4.5349 -1.2617 -0.0605 -0.3620 0.0000 -0.0000 -5.7754 -19.0663 10.2770 10.0225 -0.0000 -0.0000 6.4340 5.1455 3.7052 -4.2148 0.0000 -0.0000 -8.1142 21.7009 -8.1368 14.2019 -0.0000 -0.0000 3.5378 3.3653 1.0274 27.1846 -29.6969 -13.7994 -66.7221 -4.6323 33.3751 5.6761 0.0000 42.9776 3.2626 -15.0832 12.3561 33.1476 -0.0000 -26.2537 10.9301 8.0198 24.9868 -27.0529 3.5487 -28.1882 -17.9995 -0.0000 -3.3736 0.1025 1.4885 -3.9412 32.8623 0.0000 24.3270 -4.5414 -12.8894 -4.6693
-3.2963 37.1314 1.4133 -0.8955 4.0943 -2.1882 4.5226 -1.2552 -0.0611 -0.3549 0.0000 -0.0000 -5.7685 -19.0662 10.2567 9.8195 -0.0000 -0.0000 6.4247 5.1367 3.7054 -4.2034 0.0000 -0.0000 -8.1308 21.7219 -8.1316 14.2540 -0.0000 -0.0000 3.5440 3.3704 1.0232 27.2029 -29.6835 -13.7797 -66.6568 -4.6251 33.3954 5.7864 -0.0000 43.0111 3.2574 -15.1291 12.3017 33.1476 -0.0000 -26.2537 10.9436 7.9894 24.9403 -27.0536 3.6354 -28.1942 -18.2416 -0.0000 -3.4935 0.1037 1.5485 -3.8306 32.8623 0.0000 24.3270 -4.5770 -12.9012 -4.6649
-3.2955 37.1316 1.4112 -0.8932 4.0968 -2.1910 4.5138 -1.2573 -0.0591 -0.3466 0.0000 -0.0000 -5.7717 -19.0721 10.2590 9.8090 -0.0000 -0.0000 6.4149 5.1257 3.7098 -4.1967 0.0000 -0.0000 -8.1312 21.7074 -8.1151 14.2233 -0.0000 -0.0000 3.5529 3.3679 1.0188 27.2523 -29.6845 -13.7333 -66.5588 -4.5940 33.4280 5.9557 -0.0000 43.0189 3.2704 -15.1607 12.3247 33.1476 -0.0000 -26.2537 10.9339 7.9505 24.9019 -26.9749 3.7170 -28.2064 -18.5214 0.0000 -3.7946 0.1011 1.5274 -3.7885 32.8623 0.0000 24.3270 -4.6233 -12.8866 -4.6434
-3.2943 37.1319 1.4095 -0.8954 4.0975 -2.1876 4.5125 -1.2710 -0.0641 -0.3464 0.0000 -0.0000 -5.7709 -19.0611 10.2571 9.8378 -0.0000 -0.0000 6.4144 5.1197 3.7022 -4.1938 0.0000 -0.0000 -8.1296 21.7228 -8.1033 14.1873 -0.0000 -0.0000 3.5647 3.3710 1.0179 27.2586 -29.6605 -13.7287 -66.3943 -4.5805 33.4529 6.1441 0.0000 42.9677 3.2405 -15.2279 12.1645 33.1476 -0.0000 -26.2537 10.9696 7.9288 24.8513 -27.0074 3.8403 -28.2568 -18.8579 0.0000 -3.9968 0.1170 1.7587 -3.8055 32.8623 0.0000 24.3270 -4.6682 -12.8908 -4.6605
-3.2933 37.1322 1.4077 -0.8927 4.0989 -2.1893 4.5079 -1.2671 -0.0640 -0.3477 0.0000 -0.0000 -5.7649 -19.0681 10.2674 9.8857 -0.0000 -0.0000 6.4055 5.1046 3.7023 -4.1867 0.0000 -0.0000 -8.1312 21.7423 -8.1097 14.2114 -0.0000 -0.0000 3.5705 3.3678 1.0111 27.3014 -29.6463 -13.6959 -66.2063 -4.5088 33.4984 6.3206 0.0000 42.8833 3.2573 -15.3470 12.1356 33.1476 -0.0000 -26.2537 11.0047 7.9033 24.7785 -26.9835 3.9303 -28.2672 -19.1708 -0.0000 -4.1784 0.0964 1.5935 -3.4635 32.8623 0.0000 24.3270 -4.6947 -12.8821 -4.6278
-3.2901 37.1324 1.4049 -0.8833 4.1081 -2.1787 4.4980 -1.2785 -0.0793 -0.3544 0.0000 -0.0000 -5.7548 -19.0703 10.2704 9.8112 -0.0000 -0.0000 6.3884 5.0860 3.6863 -4.1763 0.0000 -0.0000 -8.1291 21.7541 -8.1145 14.2193 -0.0000 -0.0000 3.5686 3.3701 0.9991 27.3454 -29.6378 -13.6605 -66.0683 -4.5024 33.5421 6.5402 0.0000 42.8647 3.2494 -15.3575 12.0992 33.1476 -0.0000 -26.2537 11.0510 7.8643 24.6982 -26.9675 4.0493 -28.2808 -19.5569 0.0000 -4.5787 0.0886 1.5263 -3.3209 32.8623 0.0000 24.3270 -4.7230 -12.8882 -4.6206
-3.2895 37.1330 1.4011 -0.8803 4.1021 -2.1760 4.4804 -1.2716 -0.0832 -0.3380 0.0000 -0.0000 -5.7592 -19.0754 10.2561 9.8187 -0.0000 -0.0000 6.3767 5.0850 3.6831 -4.1669 0.0000 -0.0000 -8.1278 21.7544 -8.1276 14.2105 -0.0000 -0.0000 3.5839 3.3782 0.9870 27.4130 -29.6190 -13.5790 -65.9085 -4.4460 33.5753 6.7894 -0.0000 42.8069 3.2583 -15.4040 12.0968 33.1476 -0.0000 -26.2537 11.1166 7.8499 24.6053 -27.0103 4.1788 -28.2995 -19.9566 0.0000 -5.0244 0.0794 1.4387 -3.1598 32.8623 0.0000 24.3270 -4.7686 -12.8839 -4.6040
-3.2890 37.1337 1.3970 -0.8720 4.1102 -2.1759 4.4642 -1.2882 -0.0829 -0.3335 0.0000 -0.0000 -5.7520 -19.0653 10.2394 9.8181 -0.0000 -0.0000 6.3505 5.0808 3.6822 -4.1492 0.0000 -0.0000 -8.1249 21.7501 -8.1163 14.2109 -0.0000 -0.0000 3.5897 3.3782 0.9755 27.4618 -29.5912 -13.5176 -65.6964 -4.4134 33.6163 7.0742 0.0000 42.7671 3.2436 -15.3268 12.1012 33.1476 -0.0000 -26.2537 11.2004 7.8371 24.4765 -26.9684 4.2268 -28.2908 -20.3486 0.0000 -5.7169 0.0564 1.0836 -2.9785 32.8623 0.0000 24.3270 -4.7972 -12.8799 -4.5684
-3.2873 37.1339 1.3936 -0.8708 4.1190 -2.1838 4.4576 -1.2991 -0.0789 -0.3303 0.0000 -0.0000 -5.7413 -19.0695 10.2792 9.8350 -0.0000 -0.0000 6.3361 5.0759 3.6880 -4.1327 0.0000 -0.0000 -8.1423 21.7340 -8.0858 14.2007 -0.0000 -0.0000 3.5900 3.3779 1.0072 27.5138 -29.5793 -13.5110 -65.4298 -4.3833 33.6912 7.3745 -0.0000 42.6655 3.2801 -15.4637 12.1311 33.1476 -0.0000 -26.2537 11.2490 7.7639 24.3486 -27.0509 4.4821 -28.3172 -20.8681 0.0000 -6.2156 0.0613 1.1949 -2.9364 32.8623 0.0000 24.3270 -4.7990 -12.5644 -4.4988
-3.2865 37.1340 1.3928 -0.8717 4.1356 -2.1703 4.4632 -1.3066 -0.0914 -0.3387 0.0000 -0.0000 -5.7492 -19.0751 10.2529 9.8352 -0.0000 -0.0000 6.3389 5.0554 3.6750 -4.1413 0.0000 -0.0000 -8.1271 21.7380 -8.0908 14.2041 -0.0000 -0.0000 3.6139 3.3798 0.9629 27.5760 -29.5678 -13.3935 -65.2190 -4.3292 33.7704 7.6772 0.0000 42.7042 3.2914 -15.4591 12.1751 33.1476 -0.0000 -26.2537 11.2531 7.7223 24.2906 -27.1153 4.7590 -28.4053 -21.5088 -0.0000 -6.7877 0.0622 1.2783 -2.7859 32.8623 0.0000 24.3270 -4.8386 -12.8778 -4.5350
